<?xml version="1.0" encoding="UTF-8"?><svg version="1.1" xmlns="http://www.w3.org/2000/svg" width="463" height="463"><path d="M0 0 C2.41 2.21 4.75 4.49 7.09 6.77 C7.86 7.49 8.64 8.2 9.44 8.94 C31.35 29.61 46.34 61.38 47.32 91.55 C48.06 135.51 25.05 168.48 -0.89 202.14 C-26.03 233.26 -26.03 233.26 -39.25 270.28 C-40.04 273.24 -40.4 274.04 -42.91 275.77 C-45.81 276.07 -48.48 276.18 -51.38 276.16 C-52.24 276.17 -53.1 276.17 -53.99 276.18 C-56.85 276.19 -59.71 276.18 -62.57 276.17 C-64.55 276.17 -66.54 276.18 -68.52 276.18 C-72.68 276.18 -76.84 276.18 -81 276.16 C-86.34 276.15 -91.67 276.16 -97.01 276.17 C-101.11 276.18 -105.2 276.18 -109.3 276.17 C-111.27 276.17 -113.24 276.17 -115.21 276.18 C-117.95 276.19 -120.7 276.18 -123.45 276.16 C-124.68 276.17 -124.68 276.17 -125.93 276.18 C-131.4 276.12 -131.4 276.12 -133.9 274.43 C-135.5 271.82 -135.67 269.17 -136.1 266.15 C-138.48 252.27 -145.71 240.03 -153.91 228.77 C-154.41 228.09 -154.9 227.41 -155.41 226.7 C-161.78 217.88 -168.32 209.21 -175.04 200.65 C-201.65 166.67 -225.75 130.32 -221.7 85.35 C-221.08 80.42 -220.11 75.6 -218.91 70.77 C-218.75 70.12 -218.59 69.47 -218.43 68.8 C-214.1 52.08 -206.43 36.44 -195.91 22.77 C-195.19 21.83 -194.48 20.89 -193.73 19.92 C-170.94 -8.88 -137.77 -28.39 -101.1 -32.92 C-64.22 -35.81 -27.84 -24.76 0 0 Z M-120.91 -16.23 C-121.94 -15.91 -121.94 -15.91 -122.99 -15.59 C-155.64 -5.28 -181.95 18.9 -197.91 48.77 C-210.24 73.75 -213.68 102.13 -204.71 128.61 C-195.45 154.14 -178.47 175.82 -162.04 197.08 C-160.33 199.31 -158.62 201.54 -156.91 203.77 C-156.11 204.82 -156.11 204.82 -155.3 205.89 C-127.67 242.27 -127.67 242.27 -123.91 262.77 C-123.58 263.1 -123.25 263.43 -122.91 263.77 C-113.01 263.77 -103.11 263.77 -92.91 263.77 C-92.91 225.82 -92.91 187.87 -92.91 148.77 C-97.53 147.45 -102.15 146.13 -106.91 144.77 C-119.94 137.51 -128.75 128.56 -133.35 113.96 C-135.82 100.83 -134.25 87.08 -126.91 75.77 C-125.94 74.42 -124.94 73.09 -123.91 71.77 C-123.31 70.95 -122.7 70.13 -122.08 69.28 C-116.2 62.48 -107.63 57.8 -98.91 55.77 C-97.75 55.5 -97.75 55.5 -96.57 55.23 C-82.73 52.86 -69.91 55.9 -58.41 63.81 C-49.43 70.87 -43.32 80.52 -40.91 91.77 C-39.59 106.75 -41.36 119.7 -50.91 131.77 C-59.31 141.28 -68.78 145.74 -80.91 148.77 C-80.91 186.72 -80.91 224.67 -80.91 263.77 C-71.01 263.77 -61.11 263.77 -50.91 263.77 C-49.92 259.81 -48.93 255.85 -47.91 251.77 C-46.74 248.96 -45.58 246.38 -44.16 243.71 C-43.81 243.03 -43.46 242.35 -43.1 241.65 C-35.11 226.46 -24.43 213.05 -14.04 199.46 C-3.45 185.61 7.04 171.69 16.09 156.77 C16.46 156.16 16.84 155.54 17.23 154.91 C32.87 129.06 39.14 102.5 32.09 72.77 C26.33 50.46 14.78 32.46 -0.91 15.77 C-1.44 15.18 -1.97 14.59 -2.51 13.98 C-20.33 -5.2 -49.27 -18.77 -75.29 -20.45 C-79 -20.57 -82.7 -20.61 -86.41 -20.6 C-87.07 -20.6 -87.73 -20.6 -88.41 -20.6 C-99.65 -20.56 -110.15 -19.54 -120.91 -16.23 Z M-112.18 75.82 C-119.33 83.29 -123.36 92.66 -123.19 103.08 C-122.11 113.69 -118.03 122.76 -109.74 129.55 C-107.53 131.11 -105.29 132.47 -102.91 133.77 C-102.31 134.11 -101.71 134.45 -101.09 134.8 C-93.65 138.29 -84.33 137.93 -76.56 135.89 C-65.67 131.71 -59.06 125.16 -53.91 114.77 C-50.22 105.7 -51.1 95.71 -54.46 86.67 C-58.31 79.01 -64.97 72.17 -72.91 68.77 C-87.52 64.14 -100.51 65.28 -112.18 75.82 Z " fill="#9F3386" transform="translate(318.9140625,90.227783203125)"/><path d="M0 0 C0.93 -0.01 1.85 -0.02 2.81 -0.03 C3.82 -0.02 4.83 -0.01 5.87 -0.01 C7.47 -0.02 7.47 -0.02 9.11 -0.02 C12.64 -0.04 16.18 -0.03 19.71 -0.02 C22.16 -0.02 24.62 -0.02 27.07 -0.03 C32.21 -0.03 37.36 -0.02 42.5 -0.01 C49.1 0.01 55.7 -0 62.3 -0.02 C67.36 -0.03 72.43 -0.03 77.49 -0.02 C79.93 -0.02 82.36 -0.02 84.8 -0.03 C88.19 -0.04 91.59 -0.02 94.99 -0.01 C96.51 -0.02 96.51 -0.02 98.05 -0.03 C98.98 -0.02 99.9 -0.01 100.85 0 C101.66 0 102.46 0 103.29 0 C105.9 0.48 106.79 1.27 108.36 3.38 C109.01 8.52 109.01 8.52 107.12 11.04 C104.87 12.75 103.62 12.76 100.81 12.76 C99.41 12.77 99.41 12.77 97.98 12.79 C96.96 12.78 95.93 12.78 94.88 12.77 C93.26 12.78 93.26 12.78 91.61 12.79 C88.04 12.8 84.47 12.79 80.89 12.78 C78.42 12.78 75.94 12.78 73.46 12.79 C67.6 12.79 61.74 12.78 55.88 12.77 C51.2 12.76 46.53 12.76 41.85 12.77 C35.41 12.79 28.97 12.79 22.52 12.78 C20.06 12.78 17.6 12.78 15.15 12.79 C11.71 12.8 8.28 12.79 4.85 12.77 C3.82 12.78 2.8 12.78 1.75 12.79 C0.81 12.78 -0.12 12.77 -1.08 12.76 C-2.3 12.76 -2.3 12.76 -3.54 12.76 C-6.17 12.28 -7.05 11.5 -8.64 9.38 C-9.07 6.38 -9.07 6.38 -8.64 3.38 C-5.82 0.69 -3.85 0.01 0 0 Z " fill="#9C318E" transform="translate(181.63685607910156,411.6190490722656)"/><path d="M0 0 C0.93 -0.01 1.85 -0.01 2.8 -0.02 C3.82 -0.02 4.83 -0.02 5.87 -0.01 C7.48 -0.02 7.48 -0.02 9.11 -0.03 C12.65 -0.04 16.19 -0.04 19.73 -0.04 C22.19 -0.04 24.64 -0.05 27.1 -0.05 C32.25 -0.06 37.39 -0.06 42.54 -0.05 C49.15 -0.05 55.76 -0.07 62.37 -0.09 C67.44 -0.1 72.51 -0.1 77.58 -0.1 C80.01 -0.1 82.45 -0.11 84.89 -0.12 C88.29 -0.13 91.69 -0.12 95.09 -0.11 C96.11 -0.12 97.12 -0.13 98.16 -0.13 C99.09 -0.13 100.01 -0.12 100.97 -0.11 C102.17 -0.11 102.17 -0.11 103.4 -0.11 C106.02 0.36 106.91 1.15 108.48 3.26 C109.13 8.4 109.13 8.4 107.24 10.92 C104.99 12.63 103.74 12.64 100.93 12.64 C99.53 12.65 99.53 12.65 98.1 12.67 C97.08 12.66 96.05 12.66 95 12.65 C93.38 12.66 93.38 12.66 91.73 12.66 C88.16 12.68 84.59 12.67 81.01 12.66 C78.54 12.66 76.06 12.66 73.58 12.67 C67.72 12.67 61.86 12.66 56 12.65 C51.32 12.64 46.65 12.64 41.97 12.65 C35.53 12.67 29.09 12.67 22.64 12.66 C20.18 12.66 17.72 12.66 15.27 12.67 C11.83 12.68 8.4 12.67 4.97 12.65 C3.94 12.65 2.92 12.66 1.87 12.67 C0.93 12.66 0 12.65 -0.96 12.64 C-2.18 12.64 -2.18 12.64 -3.42 12.64 C-6.06 12.16 -6.97 11.43 -8.52 9.26 C-8.39 5.7 -8.39 5.7 -7.52 2.26 C-4.36 0.15 -3.61 0.01 0 0 Z " fill="#9D318E" transform="translate(181.5166015625,382.7393035888672)"/><path d="M0 0 C1.87 -0.02 1.87 -0.02 3.78 -0.04 C5.15 -0.04 6.51 -0.03 7.87 -0.03 C9.27 -0.03 10.67 -0.04 12.07 -0.05 C15 -0.05 17.93 -0.05 20.86 -0.04 C24.62 -0.03 28.37 -0.05 32.12 -0.08 C35.01 -0.1 37.9 -0.1 40.79 -0.09 C42.17 -0.09 43.56 -0.1 44.94 -0.11 C46.88 -0.13 48.81 -0.11 50.75 -0.1 C51.85 -0.1 52.95 -0.1 54.09 -0.1 C57.61 0.52 58.82 1.56 60.94 4.4 C60.88 7.53 60.88 7.53 59.94 10.4 C56.44 12.74 55.01 12.66 50.86 12.68 C48.99 12.69 48.99 12.69 47.07 12.71 C45.7 12.71 44.34 12.71 42.97 12.7 C41.57 12.71 40.17 12.71 38.77 12.72 C35.83 12.73 32.9 12.72 29.96 12.72 C26.2 12.71 22.44 12.73 18.67 12.75 C15.78 12.77 12.89 12.77 9.99 12.77 C8.61 12.77 7.22 12.77 5.83 12.78 C3.89 12.79 1.95 12.79 0.02 12.78 C-1.64 12.78 -1.64 12.78 -3.33 12.78 C-6.06 12.4 -6.06 12.4 -7.92 11.07 C-9.7 8.47 -9.44 6.46 -9.06 3.4 C-6.61 -0.15 -4.12 0.02 0 0 Z " fill="#9E328F" transform="translate(206.060302734375,440.595947265625)"/><path d="M0 0 C0.7 -0.02 1.4 -0.03 2.12 -0.05 C2.74 0.07 3.36 0.19 4 0.31 C6.59 4.2 6.32 7.49 6.34 12 C6.34 12.85 6.35 13.7 6.36 14.58 C6.37 16.38 6.37 18.18 6.37 19.98 C6.37 22.74 6.41 25.49 6.45 28.24 C6.46 29.99 6.46 31.75 6.46 33.5 C6.48 34.32 6.49 35.14 6.5 35.99 C6.47 39.81 6.46 41.7 4.13 44.84 C1.48 46.67 0.16 46.88 -3 46.31 C-4.97 44.78 -5.89 43.89 -6.37 41.41 C-6.37 40.69 -6.37 39.98 -6.37 39.24 C-6.38 38.43 -6.38 37.61 -6.39 36.77 C-6.38 35.9 -6.37 35.02 -6.36 34.12 C-6.36 33.22 -6.36 32.32 -6.36 31.39 C-6.36 29.49 -6.35 27.58 -6.34 25.68 C-6.31 22.76 -6.32 19.84 -6.32 16.92 C-6.32 15.07 -6.31 13.22 -6.3 11.37 C-6.3 10.49 -6.3 9.62 -6.3 8.71 C-6.24 3.07 -6.17 0.03 0 0 Z " fill="#9D3190" transform="translate(230,-0.3125)"/><path d="M0 0 C1.25 -0.01 1.25 -0.01 2.52 -0.01 C4.28 -0.02 6.04 -0.02 7.8 -0.01 C10.49 -0.01 13.18 -0.04 15.88 -0.06 C17.58 -0.06 19.29 -0.06 21 -0.06 C21.81 -0.07 22.61 -0.08 23.44 -0.09 C29.06 -0.04 29.06 -0.04 31.21 1.64 C33.2 4.2 32.89 6.17 32.5 9.3 C31.51 10.96 31.51 10.96 29.5 12.3 C26.61 12.61 23.93 12.74 21.04 12.73 C19.79 12.74 19.79 12.74 18.52 12.75 C16.77 12.76 15.01 12.76 13.26 12.75 C10.58 12.74 7.9 12.77 5.21 12.8 C3.51 12.8 1.8 12.8 0.1 12.8 C-1.1 12.81 -1.1 12.81 -2.33 12.83 C-5.93 12.79 -8.08 12.6 -11.04 10.47 C-12.5 8.3 -12.5 8.3 -12.44 5.18 C-10.45 -0.91 -5.43 -0.01 0 0 Z " fill="#F15B0F" transform="translate(391.5,183.69921875)"/><path d="M0 0 C2.38 2.19 2.38 2.19 4 5 C3.73 11.68 -2.07 15.74 -6.52 20.15 C-8.12 21.74 -9.69 23.36 -11.26 24.98 C-12.28 26 -13.3 27.03 -14.32 28.05 C-15.7 29.44 -15.7 29.44 -17.11 30.85 C-20.51 33.38 -22.8 33.84 -27 34 C-28.94 33 -28.94 33 -30 31 C-30.5 26.69 -30.49 24.69 -27.92 21.11 C-26.98 20.16 -26.02 19.23 -25.04 18.32 C-24.53 17.82 -24.03 17.32 -23.51 16.81 C-21.9 15.23 -20.26 13.68 -18.62 12.12 C-17.53 11.06 -16.44 9.99 -15.35 8.92 C-5.41 -0.77 -5.41 -0.77 0 0 Z " fill="#671BAA" transform="translate(122,287)"/><path d="M0 0 C0.84 2.69 1.29 4.25 1 7 C-0.23 8.84 -0.23 8.84 -1.98 10.72 C-2.62 11.42 -3.26 12.11 -3.92 12.83 C-7.35 16.4 -10.8 19.94 -14.31 23.44 C-15.03 24.16 -15.74 24.87 -16.48 25.62 C-17.16 26.3 -17.85 26.98 -18.55 27.68 C-19.47 28.6 -19.47 28.6 -20.42 29.54 C-22.69 31.63 -23.81 31.98 -26.94 32.25 C-30 32 -30 32 -31.94 30.94 C-33.68 27.77 -32.81 25.44 -32 22 C-29.82 19.11 -29.82 19.11 -26.98 16.32 C-26.47 15.82 -25.97 15.32 -25.46 14.81 C-24.4 13.77 -23.33 12.73 -22.26 11.7 C-20.62 10.12 -19.01 8.52 -17.39 6.92 C-7.47 -2.82 -7.47 -2.82 0 0 Z " fill="#DA4F35" transform="translate(367,57)"/><path d="M0 0 C1.25 -0.01 1.25 -0.01 2.53 -0.02 C4.29 -0.03 6.05 -0.03 7.82 -0.04 C10.52 -0.05 13.22 -0.08 15.92 -0.11 C17.64 -0.12 19.35 -0.12 21.06 -0.12 C21.87 -0.14 22.68 -0.15 23.52 -0.16 C29.16 -0.14 29.16 -0.14 31.31 1.54 C33.29 4.1 32.99 6.07 32.6 9.2 C31.31 10.87 31.31 10.87 29.6 12.2 C26.69 12.49 24 12.6 21.1 12.57 C19.85 12.57 19.85 12.57 18.58 12.57 C16.82 12.57 15.06 12.56 13.3 12.54 C10.61 12.52 7.92 12.52 5.22 12.53 C3.51 12.52 1.81 12.51 0.1 12.5 C-0.71 12.5 -1.51 12.51 -2.35 12.51 C-6.21 12.46 -8.11 12.4 -11.4 10.2 C-12.38 7.34 -12.62 5.82 -11.59 2.95 C-8.89 -1.02 -4.33 0.02 0 0 Z " fill="#541593" transform="translate(47.40234375,183.796875)"/><path d="M0 0 C3.93 1.17 6.2 3.23 9.01 6.08 C9.54 6.6 10.06 7.12 10.6 7.65 C11.7 8.74 12.8 9.84 13.88 10.95 C15.55 12.63 17.24 14.28 18.94 15.94 C20.01 17 21.07 18.07 22.14 19.15 C22.64 19.64 23.15 20.13 23.67 20.63 C26.13 23.17 27.14 24.65 27.6 28.19 C27.18 30.95 27.18 30.95 25.49 32.82 C22.64 34.21 21.32 34.4 18.18 33.95 C15.97 32.27 14.13 30.67 12.19 28.72 C11.63 28.19 11.08 27.65 10.52 27.09 C9.36 25.95 8.21 24.8 7.06 23.65 C5.31 21.89 3.52 20.17 1.73 18.45 C0.61 17.33 -0.51 16.22 -1.63 15.1 C-2.16 14.59 -2.7 14.08 -3.25 13.55 C-6.07 10.64 -6.82 9.3 -6.83 5.19 C-5.55 1.09 -4.36 -0.08 0 0 Z " fill="#D94F35" transform="translate(340.82275390625,287.053955078125)"/><path d="M0 0 C2.21 1.64 3.92 3.12 5.8 5.07 C6.32 5.6 6.84 6.12 7.38 6.65 C8.48 7.75 9.57 8.86 10.65 9.98 C12.31 11.68 13.99 13.36 15.67 15.03 C16.74 16.11 17.8 17.18 18.86 18.26 C19.61 19.01 19.61 19.01 20.38 19.77 C23.21 22.72 24.79 24.87 25 29 C24 31.31 24 31.31 22 33 C17.63 33.56 15.65 33.46 12 30.89 C11.01 29.93 10.03 28.96 9.07 27.96 C8.28 27.18 8.28 27.18 7.48 26.39 C6.39 25.29 5.3 24.19 4.22 23.08 C2.57 21.38 0.88 19.72 -0.81 18.06 C-1.87 16.99 -2.94 15.91 -4 14.84 C-4.75 14.09 -4.75 14.09 -5.52 13.34 C-7.96 10.78 -8.96 9.31 -9.38 5.75 C-9 3 -9 3 -7.88 1.12 C-5.06 -0.56 -3.24 -0.39 0 0 Z " fill="#671BAA" transform="translate(101,56)"/></svg>
