<?xml version="1.0" encoding="UTF-8"?><svg version="1.1" xmlns="http://www.w3.org/2000/svg" width="463" height="463"><path d="M0 0 C2.38 1.71 4.58 3.43 6.81 5.31 C8.15 6.42 9.5 7.52 10.84 8.62 C11.88 9.47 11.88 9.47 12.93 10.33 C16.16 12.93 19.48 15.41 22.81 17.88 C28.66 22.22 34.44 26.64 40.19 31.12 C41.32 32.01 41.32 32.01 42.48 32.92 C43.96 34.07 45.44 35.23 46.92 36.38 C50.94 39.52 54.97 42.64 59.03 45.73 C61.05 47.27 63.05 48.84 65.03 50.43 C65.99 51.17 66.95 51.92 67.94 52.69 C68.77 53.35 69.61 54.02 70.46 54.7 C73.84 56.43 75.32 55.85 79 55 C81.52 54.06 83.98 53.08 86.45 52.02 C87.89 51.43 89.33 50.84 90.77 50.24 C93.01 49.31 95.25 48.38 97.48 47.42 C113.93 40.42 113.93 40.42 122 43 C124.91 44.3 124.91 44.3 127.06 45.88 C127.8 46.39 128.53 46.9 129.29 47.43 C131 49 131 49 132 52 C132.83 51.61 133.66 51.21 134.52 50.81 C137.67 49.32 140.83 47.83 143.99 46.35 C145.35 45.71 146.7 45.07 148.05 44.43 C174.16 32.08 174.16 32.08 186.44 29.69 C187.16 29.53 187.89 29.38 188.63 29.22 C210.31 24.69 235.45 24.15 255.51 34.3 C258.44 36.3 260.14 37.97 262 41 C263.79 52.26 261.68 62.25 255.17 71.64 C253.19 74.18 251.13 76.59 249 79 C248.37 79.76 247.74 80.52 247.09 81.3 C234.92 95.73 218 106.09 201.41 114.73 C200.42 115.24 199.43 115.76 198.41 116.29 C188.39 121.43 178.12 125.9 167.75 130.25 C164.54 131.6 161.35 132.96 158.15 134.32 C149.9 137.84 141.65 141.36 133.33 144.7 C131.51 145.44 129.68 146.19 127.86 146.95 C125.83 147.78 123.8 148.59 121.75 149.37 C116.9 151.38 114.6 152.93 112.39 157.8 C111.9 159.19 111.42 160.58 111 162 C111.85 161.95 112.69 161.91 113.56 161.86 C121.77 161.6 127.41 161.97 133.68 167.47 C139.47 173.56 142.18 180.78 142.5 189.12 C142.26 195.54 140.79 200.41 136.03 204.83 C131.99 207.73 127.7 209.51 123.13 211.44 C122.18 211.85 121.23 212.26 120.25 212.68 C117.21 213.98 114.17 215.27 111.12 216.56 C109.09 217.43 107.05 218.31 105.01 219.18 C101.26 220.78 97.51 222.38 93.75 223.98 C92.94 224.33 92.12 224.69 91.28 225.05 C89 226 89 226 86.96 226.65 C83.3 227.88 81.55 229.22 79.79 232.55 C79.14 234.03 78.51 235.53 77.91 237.03 C77.56 237.84 77.21 238.65 76.85 239.49 C75.71 242.15 74.6 244.82 73.5 247.5 C72.72 249.35 71.93 251.19 71.14 253.04 C69.53 256.82 67.93 260.61 66.35 264.41 C64.14 269.68 61.89 274.94 59.63 280.19 C58.95 281.78 58.26 283.37 57.58 284.96 C57.25 285.71 56.93 286.47 56.59 287.25 C55.35 290.14 54.12 293.02 52.89 295.91 C52.33 297.22 51.77 298.52 51.21 299.82 C50.07 302.47 48.96 305.11 47.95 307.82 C46.16 312.45 44.7 314.95 39.97 317.18 C39.32 317.45 38.67 317.72 38 318 C37.31 318.31 36.63 318.63 35.92 318.95 C34.43 319.63 32.93 320.29 31.42 320.95 C28.85 322.07 26.3 323.23 23.75 324.39 C19.57 326.3 15.39 328.19 11.18 330.04 C9.77 330.66 8.37 331.29 6.97 331.93 C2.83 333.81 0.43 334.34 -4 333 C-6 331 -6 331 -6.25 329.02 C-6.16 322.41 -5.49 315.99 -4.55 309.45 C-4.39 308.34 -4.24 307.23 -4.08 306.09 C-3.57 302.46 -3.05 298.82 -2.54 295.19 C-2.18 292.66 -1.82 290.12 -1.47 287.59 C-0.72 282.29 0.03 277 0.78 271.7 C1.65 265.59 2.51 259.47 3.37 253.35 C4.2 247.45 5.04 241.54 5.87 235.64 C6.22 233.14 6.58 230.63 6.93 228.12 C7.42 224.63 7.92 221.14 8.42 217.65 C8.56 216.61 8.71 215.57 8.86 214.5 C9 213.55 9.13 212.6 9.27 211.62 C9.39 210.8 9.51 209.97 9.63 209.12 C10 207 10 207 11 204 C8.88 205.05 6.77 206.1 4.65 207.15 C2.82 208.06 0.98 208.97 -0.86 209.86 C-4.92 211.86 -8.89 213.82 -12.61 216.41 C-20.5 221.61 -25.52 222.12 -35.03 221.57 C-46.56 220.6 -46.56 220.6 -56.57 225.29 C-61.09 231.52 -63.9 238.52 -66.65 245.67 C-68.55 250.37 -71 254.62 -73.62 258.94 C-74.02 259.62 -74.41 260.31 -74.81 261.01 C-78.54 267.4 -82.55 269.45 -89.4 271.77 C-90.11 272.01 -90.82 272.26 -91.56 272.51 C-93.06 273.02 -94.57 273.53 -96.07 274.04 C-98.37 274.81 -100.65 275.61 -102.94 276.41 C-104.4 276.91 -105.87 277.4 -107.34 277.89 C-108.35 278.26 -108.35 278.26 -109.39 278.63 C-113.95 280.11 -116.64 279.96 -121 278 C-122.37 272 -121.51 268.47 -119.1 262.89 C-118.78 262.13 -118.47 261.37 -118.15 260.58 C-117.14 258.13 -116.1 255.69 -115.06 253.25 C-114.37 251.58 -113.67 249.9 -112.98 248.23 C-111.3 244.19 -109.6 240.16 -107.9 236.13 C-106.66 233.2 -105.44 230.27 -104.22 227.34 C-102.5 223.22 -100.76 219.11 -99 215 C-110.04 208.05 -121.33 201.53 -132.61 194.98 C-139.69 190.85 -146.75 186.7 -153.82 182.56 C-155.04 181.84 -156.27 181.12 -157.49 180.4 C-158.1 180.04 -158.71 179.69 -159.33 179.32 C-163.23 177.04 -167.12 174.76 -171.02 172.49 C-173.67 170.95 -176.32 169.41 -178.96 167.86 C-180.22 167.13 -181.48 166.4 -182.74 165.67 C-196.53 157.67 -196.53 157.67 -201 154 C-201.75 150.44 -201.75 150.44 -201 147 C-197.27 143.48 -192.98 141.22 -188.46 138.88 C-187.38 138.31 -187.38 138.31 -186.27 137.73 C-183.98 136.52 -181.68 135.32 -179.38 134.12 C-177.1 132.93 -174.83 131.74 -172.56 130.55 C-171.08 129.77 -169.61 129 -168.13 128.24 C-163.98 126.08 -159.98 123.78 -155.98 121.37 C-150.86 118.59 -147.54 118.48 -142 120 C-141.03 120.26 -140.06 120.51 -139.05 120.78 C-134.67 122 -130.32 123.32 -125.97 124.65 C-124.91 124.96 -123.84 125.28 -122.74 125.6 C-121.78 125.89 -120.82 126.19 -119.83 126.49 C-112.37 127.84 -106.98 123.97 -100.73 120.4 C-93.36 117.64 -86.02 120.37 -78.8 122.76 C-77.08 123.31 -75.36 123.85 -73.64 124.4 C-70.96 125.26 -68.29 126.13 -65.62 127 C-63.02 127.85 -60.41 128.68 -57.8 129.51 C-56.61 129.9 -56.61 129.9 -55.4 130.31 C-46.77 133.03 -41.15 130.41 -33.23 126.75 C-32.3 126.33 -31.38 125.91 -30.43 125.47 C-27.49 124.13 -24.56 122.79 -21.62 121.44 C-19.63 120.53 -17.63 119.62 -15.64 118.71 C-10.75 116.48 -5.88 114.24 -1 112 C-3.74 104.53 -6.47 97.07 -9.21 89.6 C-10.88 85.06 -12.54 80.52 -14.21 75.98 C-16.2 70.56 -18.18 65.13 -20.18 59.71 C-20.97 57.54 -21.76 55.38 -22.56 53.22 C-23.69 50.12 -24.83 47.03 -25.96 43.93 C-26.32 42.96 -26.67 41.99 -27.04 40.99 C-29.33 34.77 -31.68 28.58 -34.14 22.42 C-35.41 18.86 -35.87 16.71 -35 13 C-29.66 8.68 -23.23 6.32 -16.94 3.69 C-15.86 3.22 -14.79 2.75 -13.68 2.27 C-12.64 1.84 -11.6 1.4 -10.53 0.95 C-9.59 0.55 -8.65 0.15 -7.68 -0.26 C-4.62 -1.11 -3 -0.97 0 0 Z M-13.62 16 C-14.33 16.29 -15.04 16.57 -15.77 16.87 C-17.51 17.58 -19.26 18.29 -21 19 C-20.38 22.44 -19.52 25.6 -18.32 28.88 C-17.97 29.83 -17.63 30.78 -17.27 31.75 C-16.9 32.77 -16.52 33.79 -16.13 34.84 C-15.74 35.91 -15.35 36.98 -14.95 38.09 C-13.68 41.56 -12.4 45.03 -11.12 48.5 C-10.26 50.87 -9.39 53.24 -8.52 55.61 C-6.02 62.41 -3.51 69.21 -1 76 C-0.67 76.9 -0.33 77.81 0.01 78.74 C1.85 83.71 3.7 88.67 5.56 93.62 C6.21 95.37 6.21 95.37 6.88 97.15 C7.27 98.19 7.66 99.22 8.07 100.29 C8.56 101.6 8.56 101.6 9.06 102.94 C9.93 105.16 9.93 105.16 12 107 C27.28 100.18 42.55 93.32 57.78 86.38 C59.34 85.67 60.9 84.96 62.47 84.25 C64.67 83.25 66.87 82.24 69.07 81.24 C69.73 80.94 70.39 80.64 71.06 80.33 C73.88 79.04 76.41 77.72 79 76 C78.12 75.38 78.12 75.38 77.23 74.74 C70.37 69.82 63.7 64.69 57.05 59.5 C51.79 55.38 46.5 51.3 41.19 47.25 C40.48 46.71 39.78 46.17 39.05 45.62 C37.68 44.57 36.31 43.53 34.94 42.48 C32.04 40.26 29.14 38.04 26.25 35.81 C25.22 35.02 24.18 34.22 23.12 33.4 C20.97 31.75 18.83 30.1 16.7 28.44 C11.44 24.37 6.16 20.33 0.81 16.38 C-0.07 15.72 -0.95 15.07 -1.86 14.4 C-5.99 11.7 -9.45 14.29 -13.62 16 Z M201.25 39.75 C200.58 39.81 199.91 39.87 199.21 39.94 C185.2 41.47 172.97 46.46 160.38 52.44 C158.83 53.16 157.29 53.88 155.75 54.59 C153.4 55.68 151.06 56.78 148.72 57.87 C141.68 61.16 134.6 64.34 127.5 67.5 C117.08 72.15 106.69 76.87 96.31 81.62 C83.33 87.57 70.33 93.49 57.31 99.38 C56.43 99.77 55.56 100.17 54.65 100.58 C45 104.94 35.34 109.3 25.67 113.64 C24.41 114.21 24.41 114.21 23.12 114.79 C19.78 116.29 16.43 117.8 13.08 119.3 C-0.63 125.46 -14.31 131.69 -27.98 137.96 C-28.67 138.28 -29.36 138.6 -30.07 138.93 C-31.93 139.78 -33.78 140.63 -35.63 141.48 C-39.07 143.03 -42.53 144.52 -46 146 C-46 146.66 -46 147.32 -46 148 C-44.78 148.35 -43.57 148.7 -42.32 149.06 C-40.73 149.52 -39.15 149.98 -37.56 150.44 C-36.76 150.67 -35.96 150.9 -35.13 151.13 C-29.11 152.89 -29.11 152.89 -28 154 C-27.75 157.44 -27.75 157.44 -28 161 C-31.94 163.63 -33.42 162.91 -38 162 C-40.66 161.33 -43.29 160.64 -45.93 159.89 C-46.69 159.67 -47.45 159.46 -48.23 159.24 C-50.74 158.54 -53.24 157.83 -55.74 157.12 C-57.51 156.62 -59.28 156.12 -61.05 155.62 C-65.71 154.31 -70.37 153 -75.04 151.68 C-79.69 150.36 -84.34 149.05 -89 147.74 C-90.82 147.23 -92.64 146.71 -94.47 146.2 C-98.05 145.19 -101.63 144.19 -105.21 143.18 C-112.81 141.04 -120.41 138.89 -128 136.66 C-129.16 136.32 -130.32 135.99 -131.52 135.64 C-133.59 135.03 -135.66 134.42 -137.73 133.8 C-144.98 131.7 -149.53 131.95 -156.3 135.55 C-157.28 136.06 -158.26 136.58 -159.26 137.11 C-160.27 137.65 -161.28 138.19 -162.31 138.75 C-163.31 139.28 -164.3 139.8 -165.33 140.34 C-171.26 143.49 -177.14 146.71 -183 150 C-178.27 154.14 -172.92 157.07 -167.5 160.19 C-165.33 161.44 -163.15 162.7 -160.98 163.96 C-159.84 164.62 -158.7 165.28 -157.52 165.96 C-152.21 169.03 -146.91 172.14 -141.62 175.25 C-138.58 177.04 -135.54 178.82 -132.5 180.6 C-131.89 180.96 -131.28 181.32 -130.65 181.69 C-126.12 184.34 -121.59 187 -117.06 189.65 C-115.11 190.79 -113.15 191.94 -111.2 193.08 C-109.96 193.81 -108.73 194.53 -107.49 195.25 C-104.68 196.9 -101.87 198.55 -99.07 200.2 C-97.06 201.38 -95.03 202.53 -92.99 203.64 C-92.08 204.15 -91.17 204.65 -90.23 205.18 C-89.43 205.6 -88.64 206.03 -87.82 206.47 C-86 208 -86 208 -85.05 210.17 C-84.98 214.22 -86.44 217.47 -88.01 221.12 C-88.33 221.91 -88.65 222.69 -88.99 223.5 C-90.02 226 -91.07 228.5 -92.12 231 C-93.15 233.46 -94.17 235.93 -95.19 238.39 C-95.86 240 -96.52 241.6 -97.19 243.2 C-99.92 249.75 -102.5 256.35 -105 263 C-104.22 262.8 -103.45 262.6 -102.65 262.39 C-100.79 261.91 -98.94 261.43 -97.09 260.95 C-96.07 260.64 -95.05 260.32 -94 260 C-92.87 259.72 -91.74 259.45 -90.57 259.16 C-84.86 256.61 -82.59 250.01 -79.88 244.75 C-79.23 243.53 -78.57 242.31 -77.92 241.1 C-76.59 238.61 -75.26 236.12 -73.94 233.63 C-70.57 227.29 -67 221.07 -63.44 214.84 C-61.11 210.75 -58.8 206.67 -56.62 202.5 C-56.27 201.83 -55.92 201.17 -55.55 200.48 C-54.65 198.78 -53.76 197.07 -52.88 195.35 C-51 193 -51 193 -47.9 192.09 C-45 192 -45 192 -43.06 193 C-41.36 196.21 -42.17 198.55 -43 202 C-44.56 204.81 -44.56 204.81 -46 207 C-46 207.66 -46 208.32 -46 209 C-30.76 210.36 -21.38 208.26 -8.41 200.32 C-5.89 198.94 -3.41 197.96 -0.7 197 C8.06 194.2 8.06 194.2 14.09 187.82 C15.52 182.96 15.92 178.1 15.91 173.06 C16 170.91 16.41 169.06 17 167 C23.46 166.63 23.46 166.63 25.74 168.18 C27.51 170.75 27.16 172.3 26.8 175.37 C26.68 176.44 26.56 177.52 26.44 178.63 C26.22 180.3 26.22 180.3 26 182 C25.81 183.55 25.81 183.55 25.61 185.14 C25.17 188.47 24.71 191.79 24.23 195.11 C23.96 197.03 23.69 198.95 23.43 200.87 C23.14 202.9 22.85 204.94 22.56 206.98 C21.96 211.24 21.36 215.5 20.76 219.76 C19.27 230.34 17.78 240.91 16.29 251.49 C15.12 259.73 13.96 267.97 12.8 276.22 C12.21 280.45 11.61 284.69 11.01 288.92 C10.55 292.17 10.09 295.42 9.64 298.67 C9.47 299.83 9.3 301 9.13 302.2 C8.98 303.28 8.83 304.35 8.68 305.46 C8.55 306.39 8.41 307.32 8.28 308.28 C7.98 311.2 7.95 314.06 8 317 C13.57 315.28 18.86 313.02 24.19 310.69 C25.09 310.31 25.99 309.93 26.92 309.54 C28.22 308.97 28.22 308.97 29.54 308.39 C30.33 308.05 31.11 307.71 31.92 307.36 C36 304.69 37.54 299.99 39.46 295.66 C39.93 294.61 40.39 293.57 40.87 292.49 C41.61 290.79 41.61 290.79 42.38 289.06 C42.9 287.87 43.43 286.68 43.97 285.46 C49.22 273.56 54.38 261.64 59.54 249.7 C62.25 243.42 64.97 237.15 67.69 230.88 C69.05 227.73 70.41 224.58 71.78 221.44 C72.05 220.82 72.32 220.19 72.59 219.55 C74.4 215.39 76.2 211.23 78 207.06 C85.54 189.65 93.1 172.25 100.67 154.85 C101.07 153.93 101.48 153 101.89 152.04 C102.7 150.19 103.5 148.34 104.31 146.49 C106.48 141.52 108.63 136.53 110.77 131.54 C111.22 130.48 111.68 129.43 112.15 128.34 C113.02 126.29 113.9 124.25 114.77 122.21 C115.16 121.29 115.56 120.38 115.96 119.43 C116.31 118.62 116.65 117.81 117.01 116.98 C118 115 118 115 120 113 C123 112.75 123 112.75 126 113 C128 115 128 115 128.32 117.7 C127.94 121.62 126.71 124.25 124.94 127.75 C123.9 129.81 122.91 131.88 122 134 C122.33 134.66 122.66 135.32 123 136 C136.77 130.08 150.53 124.15 164.28 118.18 C166.74 117.11 169.2 116.05 171.66 114.99 C200.96 102.28 237.34 85.72 250 54 C250.96 51.27 251.18 49.95 251 47 C247.17 41.89 239.98 41.02 234 40 C230.94 39.8 228.07 39.85 225 40 C224.85 41.04 224.71 42.08 224.55 43.15 C222.82 54.32 220.03 63.71 210.74 71.01 C208.05 72.54 206 72.56 203 72 C201 70 201 70 200.94 66.81 C202.2 62.3 203.94 60.83 207.28 57.74 C211.38 53.6 212.16 49.16 212.19 43.56 C212.14 42.04 212.08 40.52 212 39 C208.38 39 204.84 39.36 201.25 39.75 Z M113 55 C111.51 58.47 111.51 58.47 110 62 C113.72 60.79 117.38 59.49 121 58 C120.34 57.01 119.68 56.02 119 55 C115.92 54.75 115.92 54.75 113 55 Z M89.88 64 C88.96 64.37 88.05 64.74 87.12 65.12 C86.07 65.56 86.07 65.56 85 66 C87.36 68.53 88.66 69.89 92 71 C95.17 69.63 95.17 69.63 98 68 C97.67 66.02 97.34 64.04 97 62 C94.3 62 92.37 62.98 89.88 64 Z M-95 132 C-95.33 132.66 -95.66 133.32 -96 134 C-91.91 135.14 -87.81 136.28 -83.72 137.42 C-82.33 137.81 -80.93 138.19 -79.54 138.58 C-77.54 139.14 -75.54 139.7 -73.54 140.25 C-72.33 140.59 -71.13 140.92 -69.89 141.27 C-67.17 142.08 -67.17 142.08 -65 142 C-65 141.34 -65 140.68 -65 140 C-69.25 138.66 -73.5 137.33 -77.75 136 C-78.96 135.62 -80.16 135.24 -81.41 134.84 C-83.15 134.3 -83.15 134.3 -84.92 133.75 C-85.99 133.41 -87.06 133.08 -88.16 132.73 C-91.16 131.83 -91.16 131.83 -95 132 Z M118 174 C115.39 178.48 115.8 182.07 117 187 C119.05 190.76 120.44 192.63 124 195 C126.63 195.17 126.63 195.17 129 195 C130.2 188.91 130.24 184.45 127 179 C125.11 176.87 123.41 175.61 121 174 C120.01 174 119.02 174 118 174 Z M103 178 C101.14 182.21 99.29 186.43 97.45 190.65 C96.82 192.09 96.19 193.52 95.55 194.96 C94.65 197.02 93.74 199.08 92.84 201.14 C92.56 201.79 92.28 202.43 91.98 203.09 C90.76 205.91 90 207.88 90 211 C97.92 208.54 105.42 205.33 113 202 C112.34 201.67 111.68 201.34 111 201 C110 199.23 110 199.23 109 197 C108.66 196.25 108.32 195.51 107.96 194.74 C105.56 189.06 104.4 184.16 104 178 C103.67 178 103.34 178 103 178 Z " fill="#9F3380" transform="translate(201,65)"/><path d="M0 0 C2 3 2 3 2.09 5.89 C0.5 10.44 -2.31 11.57 -6.44 13.75 C-7.19 14.17 -7.94 14.58 -8.72 15.01 C-10.31 15.9 -11.92 16.77 -13.52 17.64 C-16.01 19.01 -18.47 20.43 -20.92 21.87 C-22.51 22.79 -24.1 23.71 -25.69 24.62 C-26.43 25.06 -27.17 25.5 -27.93 25.95 C-32.11 28.31 -35.06 29.65 -40 29 C-41.88 27.88 -41.88 27.88 -43 26 C-43.5 23.06 -43.5 23.06 -43 20 C-39.46 16.73 -35.45 14.43 -31.24 12.14 C-30.29 11.62 -30.29 11.62 -29.32 11.09 C-27.32 9.99 -25.32 8.9 -23.31 7.81 C-21.95 7.07 -20.6 6.32 -19.24 5.58 C-6.51 -1.4 -6.51 -1.4 0 0 Z " fill="#D74D3A" transform="translate(390,138)"/></svg>
